<svg id="svg5" xmlns="http://www.w3.org/2000/svg" viewBox="0 0 867.08 867.08"><defs><style>.cls-1{fill:#8b8b8b;}</style></defs><polygon class="cls-1" points="486.41 363.91 486.41 362.62 485.76 363.91 486.41 363.91"/><path class="cls-1" d="M786.42,0H80.66A80.9,80.9,0,0,0,0,80.66V786.42a80.89,80.89,0,0,0,80.66,80.66H786.42a80.89,80.89,0,0,0,80.66-80.66V80.66A80.89,80.89,0,0,0,786.42,0Zm-523,733.06H119.85V301.2H263.37ZM251.09,221q-22.64,21.35-59.48,21.34H191q-35.55,0-57.53-21.34t-22-53.65q0-32.32,22.62-53.34T192.9,93q35.57,0,57.54,20.69,22.63,21.33,22.63,55.59Q273.07,200.35,251.09,221Zm530.12,512H637.69V502.26q0-97.62-72.41-97.62-27.79,0-46.22,15.19A93.79,93.79,0,0,0,491.58,457q-5.18,12.28-5.17,34.91V733.06H342.89q1.29-195.25,1.29-303.21T342.89,301.2H486.41v61.42Q533,290.86,616.35,290.86q74.35,0,119.61,49.45t45.25,145.14Z" transform="translate(0 0)"/></svg>