<svg id="svg5" xmlns="http://www.w3.org/2000/svg" viewBox="0 0 867.08 867.08"><defs><style>.cls-1{fill:#8b8b8b;}</style></defs><polygon class="cls-1" points="195.85 173.56 584.73 693.51 672.79 693.51 283.92 173.56 195.85 173.56"/><path class="cls-1" d="M786.42,0H80.66A80.9,80.9,0,0,0,0,80.66V786.42a80.89,80.89,0,0,0,80.66,80.66H786.42a80.89,80.89,0,0,0,80.66-80.66V80.66A80.89,80.89,0,0,0,786.42,0ZM564,735,386.9,498.29,167.77,735H111.45L361.73,464.63,113,132.07H304.71l163.05,218,201.8-218h56.33l-233,251.68L755.64,735Z"/></svg>